<?xml version="1.0" encoding="UTF-8"?>
<svg width="245px" height="85px" viewBox="0 0 245 85" version="1.1" xmlns="http://www.w3.org/2000/svg" xmlns:xlink="http://www.w3.org/1999/xlink">
    <!-- Generator: Sketch 51.3 (57544) - http://www.bohemiancoding.com/sketch -->
    <title>לוגו עם סלוגן</title>
    <desc>Created with Sketch.</desc>
    <defs></defs>
    <g id="אפליקציה" stroke="none" stroke-width="1" fill="none" fill-rule="evenodd">
        <g id="אודות" transform="translate(-38.000000, -17.000000)" fill="#FFFFFF">
            <g id="כותרת">
                <g id="לוגו-עם-סלוגן" transform="translate(38.000000, 17.000000)">
                    <g id="לוגו-איפה-דפי" stroke-width="1">
                        <path d="M18.5291282,57.4584379 C14.3941667,57.4584379 14.3941667,51.2505528 18.5291282,51.2505528 L18.5857715,51.2505528 C22.720733,51.2505528 22.720733,57.4584379 18.5857715,57.4584379 L18.5291282,57.4584379 Z M0.578822125,14.0527786 L5.79201912,15.9390039 C5.75234969,16.2452182 5.73221475,16.5491263 5.73221475,16.8474536 C5.73221475,20.428589 10.7741303,25.1890183 14.5221356,28.2330433 L4.11907624,28.2330433 C4.11907624,28.2330433 0.0884172621,24.291048 0.0884282341,18.4263851 C0.0884310457,16.9235197 0.253607904,15.456809 0.578822125,14.0527786 Z M1.00920185,12.5094082 C3.19018516,5.85849656 9.18868498,0.959709501 18.3953507,0.959709501 C30.1745581,0.959709501 37.648786,8.59019793 37.648786,18.8182719 C37.648786,21.4399419 36.8402646,23.8829941 35.6327789,26.1145176 L28.3056986,23.9239857 C29.95152,21.5637778 31.2761085,19.0064327 31.2761085,16.8887595 C31.2761085,16.8445344 31.2755755,16.8012478 31.2745149,16.7588865 C31.2291504,13.3744451 28.6214513,9.32011561 24.314165,9.32011561 C19.9688066,9.32011561 18.0124561,13.1626769 18.0124561,13.1626769 C18.0124561,13.1626769 17.0403129,9.32011561 12.6931664,9.32011561 C9.89093576,9.32011561 7.80742105,11.0371328 6.68142618,13.1688869 L4.60956433,12.9117756 C4.60956433,12.9117756 2.90186947,12.7036734 1.00920185,12.5094082 Z M34.5384345,27.9312945 C32.6646732,30.7603918 30.2794705,33.193086 28.368649,35.1501591 C25.1349847,38.4620945 22.9341277,40.2415961 22.9341279,43.1486679 L22.9341279,47.6223864 L13.7485074,47.6223864 L13.7485074,43.1486679 C13.3427933,36.8766189 19.584078,34.3371973 23.4744585,29.7074168 C24.1921509,28.9625655 25.1100415,27.9699176 26.0623774,26.8346729 L34.5384345,27.9312945 Z M2.02818928,13.625241 L24.2327886,16.8266766 L18.4242299,21.9940981 L34.2645981,26.8033575 L14.1998236,23.7318151 L18.0401929,19.0216875 L2.02818928,13.625241 Z M15.3582364,16.3535304 L19.6497159,18.9468144 L21.2932612,17.2634546 L15.3582364,16.3535304 Z" id="איפה-דפי?"></path>
                        <path d="M211.535549,47.8030494 L203.11746,47.8030494 L204.026831,43.4412438 L206.770513,29.7686608 C208.26282,22.4710245 214.086871,21.8838584 215.984241,20.6256452 L216.058761,20.4975201 L212.83103,13.9151751 L209.690748,7.6241093 L219.861882,7.6241093 L220.866772,9.63725034 L229.432884,27.1062071 C232.193922,25.3828798 231.964156,21.9469073 233.007807,18.4447424 L235.159311,11.230987 L236.291404,7.54022842 L244.793673,7.54022842 L243.406398,12.2375575 L241.254893,19.451313 C238.941292,27.0694657 235.687131,29.1023022 231.251616,30.8151674 L236.496929,41.5119836 L239.62296,47.8869303 L229.451827,47.8869303 L228.461187,45.7899083 L217.773593,23.9945959 C216.252915,25.5714837 215.643978,27.4524679 215.1316,30.1041843 L212.387919,43.7767673 L211.535549,47.8030494 Z M199.050933,13.2321113 L206.707822,13.2321113 L206.094494,16.8423522 L203.972377,29.3337858 L203.359048,32.9440267 L195.702159,32.9440267 L196.315488,29.3337858 L198.437605,16.8423522 L199.050933,13.2321113 Z M172.647458,32.8224314 L165.065789,32.8224314 L165.678048,29.2184844 L168.347499,13.5052751 L183.237584,12.6403278 C190.961309,12.0636962 195.466972,17.25338 194.695525,21.7943534 L192.160771,36.7146943 L188.955494,47.8869303 L166.137861,47.8869303 L162.506545,47.8869303 L163.571876,41.6160623 L167.203192,41.6160623 L183.108356,41.6160623 L184.001409,36.7867732 L186.488027,21.7222744 C186.757421,20.1365377 184.956543,18.7670378 182.60801,18.9111957 L174.974043,19.1274325 L173.259717,29.2184844 L172.647458,32.8224314 Z M135.021518,29.1288172 L142.678407,29.1288172 L142.067921,32.7223255 L140.102156,44.293422 L139.49167,47.8869303 L131.834781,47.8869303 L132.445267,44.293422 L134.411032,32.7223255 L135.021518,29.1288172 Z M137.905609,18.9106105 C135.953439,18.5257201 134.720399,17.8626033 134.720399,17.8626033 L137.105269,11.7052792 C137.105269,11.7052792 137.746478,12.3265897 140.828914,12.8183583 C143.911351,13.310127 146.675548,13.2321113 146.675548,13.2321113 L165.144591,13.2321113 L163.599159,22.3290013 L159.870497,44.2770533 L159.257231,47.8869303 L151.073314,47.8869303 L151.68658,44.2770533 L155.415242,22.3290013 L155.881325,19.5854948 L145.100174,19.5854946 C143.868546,19.5854946 139.857779,19.2955009 137.905609,18.9106105 Z M85.6587176,6.13130369 C85.6587176,6.13130369 86.0676399,6.39312856 88.1019907,6.98569324 C90.1363415,7.57825792 96.3279078,7.79819497 96.3279078,7.79819497 L116.129045,7.79819497 L120.95617,7.79819497 L119.86428,15.1325166 L115.037155,15.1325166 L114.862172,15.1325166 L114.153144,15.8826177 C112.758885,17.4661644 111.827964,17.8828872 111.219979,21.9667709 L107.99394,43.6363575 L107.457682,47.8869303 L97.8999751,47.8869303 L98.4238249,43.7197021 L101.56573,21.9667709 C102.260247,17.3016372 105.147459,16.1786857 107.621149,15.1325166 L95.2360175,15.1325166 C95.2360175,15.1325166 91.9363847,15.0126193 88.0922228,14.5537349 C84.248061,14.0948506 82.9486455,13.076684 82.9486455,13.076684 L85.6587176,6.13130369 Z M60.9255501,32.8224314 L53.3438813,32.8224314 L53.9561406,29.2184844 L56.6255913,13.5052751 L71.5156761,12.6403278 C79.239401,12.0636962 83.426027,17.25338 82.6545803,21.7943534 L80.1198266,36.7146943 L76.9145489,47.8869303 L54.4159531,47.8869303 L50.7846372,47.8869303 L51.8499685,41.6160623 L55.4812844,41.6160623 L71.386448,41.6160623 L72.2795018,36.7867732 L74.7661196,21.7222744 C75.0355137,20.1365377 73.2346353,18.7670378 70.8861028,18.9111957 L63.2521356,19.1274325 L61.5378095,29.2184844 L60.9255501,32.8224314 Z M45.7952667,13.2321113 L53.4521557,13.2321113 L52.8388271,16.8423522 L50.7167102,29.3337858 L50.1033817,32.9440267 L42.4464927,32.9440267 L43.0598213,29.3337858 L45.1819381,16.8423522 L45.7952667,13.2321113 Z" id="Combined-Shape"></path>
                        <ellipse id="Oval-41" cx="99.484651" cy="52.1079891" rx="1.19862951" ry="1.21268222"></ellipse>
                        <ellipse id="Oval-41-Copy" cx="104.998347" cy="52.1079891" rx="1.19862951" ry="1.21268222"></ellipse>
                        <ellipse id="Oval-41-Copy-2" cx="102.121636" cy="55.9885722" rx="1.19862951" ry="1.21268222"></ellipse>
                    </g>
                    <path d="M239.408,77.668 C239.904002,77.668 240.345998,77.7859988 240.734,78.022 C241.122002,78.2580012 241.425999,78.5959978 241.646,79.036 C241.866001,79.4760022 241.976,79.995997 241.976,80.596 L241.976,84.244 C241.976,84.3240004 241.95,84.3899997 241.898,84.442 C241.846,84.4940003 241.78,84.52 241.7,84.52 L238.604,84.52 C238.524,84.52 238.458,84.4940003 238.406,84.442 C238.354,84.3899997 238.328,84.3240004 238.328,84.244 L238.328,83.86 C238.328,83.7799996 238.354,83.7140003 238.406,83.662 C238.458,83.6099997 238.524,83.584 238.604,83.584 L240.92,83.584 L240.92,80.668 C240.92,80.059997 240.766002,79.5660019 240.458,79.186 C240.149998,78.8059981 239.760002,78.616 239.288,78.616 L238.028,78.616 L237.092,84.232 C237.084,84.3120004 237.052,84.3799997 236.996,84.436 C236.94,84.4920003 236.872,84.52 236.792,84.52 L236.288,84.52 C236.208,84.52 236.146,84.4920003 236.102,84.436 C236.058,84.3799997 236.04,84.3120004 236.048,84.232 L237.008,78.616 L236.396,78.616 C236.316,78.616 236.25,78.5900003 236.198,78.538 C236.146,78.4859997 236.12,78.4200004 236.12,78.34 L236.12,77.944 C236.12,77.8639996 236.146,77.7980003 236.198,77.746 C236.25,77.6939997 236.316,77.668 236.396,77.668 L239.408,77.668 Z M228.744,81.736 C228.664,81.736 228.598,81.7100003 228.546,81.658 C228.494,81.6059997 228.468,81.5400004 228.468,81.46 L228.468,77.944 C228.468,77.8639996 228.494,77.7980003 228.546,77.746 C228.598,77.6939997 228.664,77.668 228.744,77.668 L229.272,77.668 C229.352,77.668 229.418,77.6939997 229.47,77.746 C229.522,77.7980003 229.548,77.8639996 229.548,77.944 L229.548,81.46 C229.548,81.5400004 229.522,81.6059997 229.47,81.658 C229.418,81.7100003 229.352,81.736 229.272,81.736 L228.744,81.736 Z M217.672,79.576 C217.68,79.8960016 217.72,80.1479991 217.792,80.332 C217.864,80.5160009 217.983999,80.6319998 218.152,80.68 L218.608,80.8 C218.672,80.8160001 218.722,80.8579997 218.758,80.926 C218.794,80.9940003 218.812,81.0759995 218.812,81.172 L218.812,81.448 C218.812,81.5360004 218.768,81.5999998 218.68,81.64 C218.592,81.6800002 218.496001,81.6920001 218.392,81.676 L217.936,81.58 C217.127996,81.4039991 216.724,80.7240059 216.724,79.54 L216.724,77.944 C216.732,77.8559996 216.76,77.7880002 216.808,77.74 C216.856,77.6919998 216.92,77.668 217,77.668 L219.22,77.668 C220.100004,77.668 220.767998,77.9259974 221.224,78.442 C221.680002,78.9580026 221.92,79.6879953 221.944,80.632 C221.952,80.7120004 221.956,80.8639989 221.956,81.088 C221.956,81.3200012 221.952,81.4759996 221.944,81.556 C221.92,82.5000047 221.680002,83.2299974 221.224,83.746 C220.767998,84.2620026 220.100004,84.52 219.22,84.52 L217.156,84.52 C217.076,84.52 217.01,84.4940003 216.958,84.442 C216.906,84.3899997 216.88,84.3240004 216.88,84.244 L216.88,83.848 C216.88,83.7599996 216.906,83.6920002 216.958,83.644 C217.01,83.5959998 217.076,83.572 217.156,83.572 L219.148,83.572 C219.708003,83.572 220.139998,83.3920018 220.444,83.032 C220.748002,82.6719982 220.912,82.1640033 220.936,81.508 C220.952,81.3479992 220.96,81.2080006 220.96,81.088 C220.96,80.9759994 220.952,80.8400008 220.936,80.68 C220.92,80.0159967 220.760002,79.5060018 220.456,79.15 C220.151998,78.7939982 219.716003,78.616 219.148,78.616 L217.672,78.616 L217.672,79.576 Z M209.06,84.52 C208.98,84.52 208.914,84.4940003 208.862,84.442 C208.81,84.3899997 208.784,84.3240004 208.784,84.244 L208.784,77.944 C208.784,77.8639996 208.81,77.7980003 208.862,77.746 C208.914,77.6939997 208.98,77.668 209.06,77.668 L209.588,77.668 C209.668,77.668 209.734,77.6939997 209.786,77.746 C209.838,77.7980003 209.864,77.8639996 209.864,77.944 L209.864,84.244 C209.864,84.3240004 209.838,84.3899997 209.786,84.442 C209.734,84.4940003 209.668,84.52 209.588,84.52 L209.06,84.52 Z M201.204,81.736 C201.124,81.736 201.058,81.7100003 201.006,81.658 C200.954,81.6059997 200.928,81.5400004 200.928,81.46 L200.928,77.944 C200.928,77.8639996 200.954,77.7980003 201.006,77.746 C201.058,77.6939997 201.124,77.668 201.204,77.668 L201.732,77.668 C201.812,77.668 201.878,77.6939997 201.93,77.746 C201.982,77.7980003 202.008,77.8639996 202.008,77.944 L202.008,81.46 C202.008,81.5400004 201.982,81.6059997 201.93,81.658 C201.878,81.7100003 201.812,81.736 201.732,81.736 L201.204,81.736 Z M186.572,77.668 C186.652,77.668 186.718,77.6939997 186.77,77.746 C186.822,77.7980003 186.848,77.8639996 186.848,77.944 L186.848,78.328 C186.848,78.4080004 186.822,78.4719998 186.77,78.52 C186.718,78.5680002 186.652,78.592 186.572,78.592 L185.864,78.592 C185.751999,78.7120006 185.662,78.8999987 185.594,79.156 C185.526,79.4120013 185.492,79.6999984 185.492,80.02 L185.492,84.256 C185.492,84.3360004 185.464,84.3999998 185.408,84.448 C185.352,84.4960002 185.284,84.52 185.204,84.52 L184.7,84.52 C184.62,84.52 184.556,84.4960002 184.508,84.448 C184.46,84.3999998 184.436,84.3360004 184.436,84.256 L184.436,79.948 C184.436,79.6199984 184.464,79.3400012 184.52,79.108 C184.576,78.8759988 184.652,78.7040006 184.748,78.592 L181.436,78.592 C181.356,78.592 181.29,78.5680002 181.238,78.52 C181.186,78.4719998 181.16,78.4080004 181.16,78.328 L181.16,77.944 C181.16,77.8639996 181.186,77.7980003 181.238,77.746 C181.29,77.6939997 181.356,77.668 181.436,77.668 L186.572,77.668 Z M170.88,79.576 C170.888,79.8960016 170.928,80.1479991 171,80.332 C171.072,80.5160009 171.191999,80.6319998 171.36,80.68 L171.816,80.8 C171.88,80.8160001 171.93,80.8579997 171.966,80.926 C172.002,80.9940003 172.02,81.0759995 172.02,81.172 L172.02,81.448 C172.02,81.5360004 171.976,81.5999998 171.888,81.64 C171.8,81.6800002 171.704001,81.6920001 171.6,81.676 L171.144,81.58 C170.335996,81.4039991 169.932,80.7240059 169.932,79.54 L169.932,77.944 C169.94,77.8559996 169.968,77.7880002 170.016,77.74 C170.064,77.6919998 170.128,77.668 170.208,77.668 L172.428,77.668 C173.308004,77.668 173.975998,77.9259974 174.432,78.442 C174.888002,78.9580026 175.128,79.6879953 175.152,80.632 C175.16,80.7120004 175.164,80.8639989 175.164,81.088 C175.164,81.3200012 175.16,81.4759996 175.152,81.556 C175.128,82.5000047 174.888002,83.2299974 174.432,83.746 C173.975998,84.2620026 173.308004,84.52 172.428,84.52 L170.364,84.52 C170.284,84.52 170.218,84.4940003 170.166,84.442 C170.114,84.3899997 170.088,84.3240004 170.088,84.244 L170.088,83.848 C170.088,83.7599996 170.114,83.6920002 170.166,83.644 C170.218,83.5959998 170.284,83.572 170.364,83.572 L172.356,83.572 C172.916003,83.572 173.347998,83.3920018 173.652,83.032 C173.956002,82.6719982 174.12,82.1640033 174.144,81.508 C174.16,81.3479992 174.168,81.2080006 174.168,81.088 C174.168,80.9759994 174.16,80.8400008 174.144,80.68 C174.128,80.0159967 173.968002,79.5060018 173.664,79.15 C173.359998,78.7939982 172.924003,78.616 172.356,78.616 L170.88,78.616 L170.88,79.576 Z M162.352,81.736 C162.272,81.736 162.206,81.7100003 162.154,81.658 C162.102,81.6059997 162.076,81.5400004 162.076,81.46 L162.076,77.944 C162.076,77.8639996 162.102,77.7980003 162.154,77.746 C162.206,77.6939997 162.272,77.668 162.352,77.668 L162.88,77.668 C162.96,77.668 163.026,77.6939997 163.078,77.746 C163.13,77.7980003 163.156,77.8639996 163.156,77.944 L163.156,81.46 C163.156,81.5400004 163.13,81.6059997 163.078,81.658 C163.026,81.7100003 162.96,81.736 162.88,81.736 L162.352,81.736 Z M150.62,84.52 C150.54,84.52 150.474,84.4940003 150.422,84.442 C150.37,84.3899997 150.344,84.3240004 150.344,84.244 L150.344,83.86 C150.344,83.7799996 150.37,83.7140003 150.422,83.662 C150.474,83.6099997 150.54,83.584 150.62,83.584 L154.076,83.584 L154.076,80.656 C154.076,79.2879932 153.392007,78.604 152.024,78.604 L150.74,78.604 C150.66,78.604 150.594,78.5780003 150.542,78.526 C150.49,78.4739997 150.464,78.4080004 150.464,78.328 L150.464,77.944 C150.464,77.8639996 150.49,77.7980003 150.542,77.746 C150.594,77.6939997 150.66,77.668 150.74,77.668 L152.084,77.668 C153.108005,77.668 153.875997,77.9159975 154.388,78.412 C154.900003,78.9080025 155.156,79.6399952 155.156,80.608 L155.156,83.584 L155.6,83.584 C155.68,83.584 155.746,83.6099997 155.798,83.662 C155.85,83.7140003 155.876,83.7799996 155.876,83.86 L155.876,84.244 C155.876,84.3240004 155.85,84.3899997 155.798,84.442 C155.746,84.4940003 155.68,84.52 155.6,84.52 L150.62,84.52 Z M143.064,84.52 C142.984,84.52 142.918,84.4940003 142.866,84.442 C142.814,84.3899997 142.788,84.3240004 142.788,84.244 L142.788,80.656 C142.788,79.2799931 142.100007,78.592 140.724,78.592 L139.176,78.592 C139.096,78.592 139.03,78.5680002 138.978,78.52 C138.926,78.4719998 138.9,78.4080004 138.9,78.328 L138.9,77.944 C138.9,77.8639996 138.926,77.7980003 138.978,77.746 C139.03,77.6939997 139.096,77.668 139.176,77.668 L140.796,77.668 C142.82801,77.668 143.844,78.6439902 143.844,80.596 L143.844,84.244 C143.844,84.3240004 143.818,84.3899997 143.766,84.442 C143.714,84.4940003 143.648,84.52 143.568,84.52 L143.064,84.52 Z M131.596,81.736 C131.516,81.736 131.45,81.7100003 131.398,81.658 C131.346,81.6059997 131.32,81.5400004 131.32,81.46 L131.32,77.944 C131.32,77.8639996 131.346,77.7980003 131.398,77.746 C131.45,77.6939997 131.516,77.668 131.596,77.668 L132.124,77.668 C132.204,77.668 132.27,77.6939997 132.322,77.746 C132.374,77.7980003 132.4,77.8639996 132.4,77.944 L132.4,81.46 C132.4,81.5400004 132.374,81.6059997 132.322,81.658 C132.27,81.7100003 132.204,81.736 132.124,81.736 L131.596,81.736 Z M121.868,77.668 C122.596004,77.668 123.173998,77.771999 123.602,77.98 C124.030002,78.188001 124.339999,78.5199977 124.532,78.976 C124.724001,79.4320023 124.82,80.0399962 124.82,80.8 C124.82,81.8240051 124.568003,82.6219971 124.064,83.194 C123.559997,83.7660029 122.904004,84.1879986 122.096,84.46 L121.592,84.628 C121.576,84.636 121.548,84.64 121.508,84.64 C121.452,84.64 121.402,84.6200002 121.358,84.58 C121.314,84.5399998 121.292,84.4840004 121.292,84.412 L121.292,83.884 C121.292,83.8199997 121.316,83.7580003 121.364,83.698 C121.412,83.6379997 121.476,83.5920002 121.556,83.56 L122.024,83.38 C122.576003,83.171999 122.999999,82.872002 123.296,82.48 C123.592001,82.087998 123.74,81.5120038 123.74,80.752 C123.74,80.2159973 123.676001,79.7940015 123.548,79.486 C123.419999,79.1779985 123.210001,78.9560007 122.918,78.82 C122.625999,78.6839993 122.224003,78.616 121.712,78.616 L121.304,78.616 L120.2,78.604 C120.12,78.604 120.054,78.5800002 120.002,78.532 C119.95,78.4839998 119.924,78.4200004 119.924,78.34 L119.924,76.276 C119.924,76.1959996 119.95,76.1300003 120.002,76.078 C120.054,76.0259997 120.12,76 120.2,76 L120.68,76 C120.76,76 120.824,76.0259997 120.872,76.078 C120.92,76.1300003 120.944,76.1959996 120.944,76.276 L120.944,77.668 L121.868,77.668 Z M110.616,84.64 C109.575995,84.64 108.814002,84.3900025 108.33,83.89 C107.845998,83.3899975 107.604,82.6600048 107.604,81.7 L107.604,77.944 C107.604,77.8639996 107.63,77.7980003 107.682,77.746 C107.734,77.6939997 107.8,77.668 107.88,77.668 L108.348,77.668 C108.428,77.668 108.494,77.6939997 108.546,77.746 C108.598,77.7980003 108.624,77.8639996 108.624,77.944 L108.624,81.64 C108.624,82.3040033 108.789998,82.8119982 109.122,83.164 C109.454002,83.5160018 109.951997,83.692 110.616,83.692 C111.280003,83.692 111.769998,83.5300016 112.086,83.206 C112.402002,82.8819984 112.568,82.3920033 112.584,81.736 L112.584,80.5 C112.576,79.8439967 112.440001,79.3560016 112.176,79.036 C111.911999,78.7159984 111.548002,78.556 111.084,78.556 C110.947999,78.556 110.790001,78.5819997 110.61,78.634 C110.429999,78.6860003 110.280001,78.7519996 110.16,78.832 C110.12,78.8560001 110.08,78.868 110.04,78.868 C109.984,78.868 109.934,78.8460002 109.89,78.802 C109.846,78.7579998 109.824,78.7080003 109.824,78.652 L109.824,78.304 C109.824,78.2079995 109.832,78.1320003 109.848,78.076 C109.864,78.0199997 109.904,77.9720002 109.968,77.932 C110.136001,77.8199994 110.313999,77.7380003 110.502,77.686 C110.690001,77.6339997 110.927999,77.608 111.216,77.608 C112.792008,77.608 113.596,78.5319908 113.628,80.38 C113.636,80.4600004 113.64,80.695998 113.64,81.088 C113.64,81.480002 113.636,81.7159996 113.628,81.796 C113.596,82.7560048 113.346002,83.4699977 112.878,83.938 C112.409998,84.4060023 111.656005,84.64 110.616,84.64 Z M100,84.52 C99.9199996,84.52 99.8540003,84.4940003 99.802,84.442 C99.7499997,84.3899997 99.724,84.3240004 99.724,84.244 L99.724,77.944 C99.724,77.8639996 99.7499997,77.7980003 99.802,77.746 C99.8540003,77.6939997 99.9199996,77.668 100,77.668 L100.528,77.668 C100.608,77.668 100.674,77.6939997 100.726,77.746 C100.778,77.7980003 100.804,77.8639996 100.804,77.944 L100.804,84.244 C100.804,84.3240004 100.778,84.3899997 100.726,84.442 C100.674,84.4940003 100.608,84.52 100.528,84.52 L100,84.52 Z M92.144,84.52 C92.0639996,84.52 91.9980003,84.4940003 91.946,84.442 C91.8939997,84.3899997 91.868,84.3240004 91.868,84.244 L91.868,80.656 C91.868,79.2799931 91.1800069,78.592 89.804,78.592 L88.256,78.592 C88.1759996,78.592 88.1100003,78.5680002 88.058,78.52 C88.0059997,78.4719998 87.98,78.4080004 87.98,78.328 L87.98,77.944 C87.98,77.8639996 88.0059997,77.7980003 88.058,77.746 C88.1100003,77.6939997 88.1759996,77.668 88.256,77.668 L89.876,77.668 C91.9080102,77.668 92.924,78.6439902 92.924,80.596 L92.924,84.244 C92.924,84.3240004 92.8980003,84.3899997 92.846,84.442 C92.7939997,84.4940003 92.7280004,84.52 92.648,84.52 L92.144,84.52 Z M80.676,81.736 C80.5959996,81.736 80.5300003,81.7100003 80.478,81.658 C80.4259997,81.6059997 80.4,81.5400004 80.4,81.46 L80.4,77.944 C80.4,77.8639996 80.4259997,77.7980003 80.478,77.746 C80.5300003,77.6939997 80.5959996,77.668 80.676,77.668 L81.204,77.668 C81.2840004,77.668 81.3499997,77.6939997 81.402,77.746 C81.4540003,77.7980003 81.48,77.8639996 81.48,77.944 L81.48,81.46 C81.48,81.5400004 81.4540003,81.6059997 81.402,81.658 C81.3499997,81.7100003 81.2840004,81.736 81.204,81.736 L80.676,81.736 Z M68.38,84.52 C68.2999996,84.52 68.2340003,84.4940003 68.182,84.442 C68.1299997,84.3899997 68.104,84.3240004 68.104,84.244 L68.104,77.944 C68.104,77.8639996 68.1299997,77.7980003 68.182,77.746 C68.2340003,77.6939997 68.2999996,77.668 68.38,77.668 L70.648,77.668 C71.6720051,77.668 72.4339975,77.9119976 72.934,78.4 C73.4340025,78.8880024 73.684,79.6199951 73.684,80.596 L73.684,84.244 C73.684,84.3240004 73.6580003,84.3899997 73.606,84.442 C73.5539997,84.4940003 73.4880004,84.52 73.408,84.52 L68.38,84.52 Z M72.652,83.584 L72.652,80.656 C72.652,79.2799931 71.9680068,78.592 70.6,78.592 L69.1,78.592 L69.1,83.584 L72.652,83.584 Z M48.012,84.52 C47.9319996,84.52 47.8660003,84.4940003 47.814,84.442 C47.7619997,84.3899997 47.736,84.3240004 47.736,84.244 L47.736,77.944 C47.736,77.8639996 47.7619997,77.7980003 47.814,77.746 C47.8660003,77.6939997 47.9319996,77.668 48.012,77.668 L50.328,77.668 C51.3600052,77.668 52.1259975,77.9139975 52.626,78.406 C53.1260025,78.8980025 53.376,79.6359951 53.376,80.62 L53.376,84.244 C53.376,84.3240004 53.3500003,84.3899997 53.298,84.442 C53.2459997,84.4940003 53.1800004,84.52 53.1,84.52 L52.596,84.52 C52.5159996,84.52 52.4500003,84.4940003 52.398,84.442 C52.3459997,84.3899997 52.32,84.3240004 52.32,84.244 L52.32,80.656 C52.32,79.2799931 51.6360068,78.592 50.268,78.592 L48.792,78.592 L48.792,84.244 C48.792,84.3240004 48.7660003,84.3899997 48.714,84.442 C48.6619997,84.4940003 48.5960004,84.52 48.516,84.52 L48.012,84.52 Z M36.196,84.52 C36.1159996,84.52 36.0500003,84.4940003 35.998,84.442 C35.9459997,84.3899997 35.92,84.3240004 35.92,84.244 L35.92,83.86 C35.92,83.7799996 35.9459997,83.7140003 35.998,83.662 C36.0500003,83.6099997 36.1159996,83.584 36.196,83.584 L39.652,83.584 L39.652,80.656 C39.652,79.2879932 38.9680068,78.604 37.6,78.604 L36.316,78.604 C36.2359996,78.604 36.1700003,78.5780003 36.118,78.526 C36.0659997,78.4739997 36.04,78.4080004 36.04,78.328 L36.04,77.944 C36.04,77.8639996 36.0659997,77.7980003 36.118,77.746 C36.1700003,77.6939997 36.2359996,77.668 36.316,77.668 L37.66,77.668 C38.6840051,77.668 39.4519974,77.9159975 39.964,78.412 C40.4760026,78.9080025 40.732,79.6399952 40.732,80.608 L40.732,83.584 L41.176,83.584 C41.2560004,83.584 41.3219997,83.6099997 41.374,83.662 C41.4260003,83.7140003 41.452,83.7799996 41.452,83.86 L41.452,84.244 C41.452,84.3240004 41.4260003,84.3899997 41.374,84.442 C41.3219997,84.4940003 41.2560004,84.52 41.176,84.52 L36.196,84.52 Z M28.64,84.52 C28.5599996,84.52 28.4940003,84.4940003 28.442,84.442 C28.3899997,84.3899997 28.364,84.3240004 28.364,84.244 L28.364,80.656 C28.364,79.2799931 27.6760069,78.592 26.3,78.592 L24.752,78.592 C24.6719996,78.592 24.6060003,78.5680002 24.554,78.52 C24.5019997,78.4719998 24.476,78.4080004 24.476,78.328 L24.476,77.944 C24.476,77.8639996 24.5019997,77.7980003 24.554,77.746 C24.6060003,77.6939997 24.6719996,77.668 24.752,77.668 L26.372,77.668 C28.4040102,77.668 29.42,78.6439902 29.42,80.596 L29.42,84.244 C29.42,84.3240004 29.3940003,84.3899997 29.342,84.442 C29.2899997,84.4940003 29.2240004,84.52 29.144,84.52 L28.64,84.52 Z M14.904,77.668 C16.9360102,77.668 17.952,78.6439902 17.952,80.596 L17.952,84.244 C17.952,84.3240004 17.9260003,84.3899997 17.874,84.442 C17.8219997,84.4940003 17.7560004,84.52 17.676,84.52 L17.172,84.52 C17.0919996,84.52 17.0260003,84.4940003 16.974,84.442 C16.9219997,84.3899997 16.896,84.3240004 16.896,84.244 L16.896,80.656 C16.896,79.2799931 16.2120068,78.592 14.844,78.592 L13.968,78.592 C13.8879996,79.0560023 13.8300002,79.4599983 13.794,79.804 C13.7579998,80.1480017 13.74,80.5399978 13.74,80.98 L13.764,84.244 C13.764,84.3240004 13.7400002,84.3899997 13.692,84.442 C13.6439998,84.4940003 13.5800004,84.52 13.5,84.52 L11.832,84.496 C11.7519996,84.496 11.6860003,84.4700003 11.634,84.418 C11.5819997,84.3659997 11.556,84.3000004 11.556,84.22 L11.556,83.86 C11.556,83.7799996 11.5819997,83.7140003 11.634,83.662 C11.6860003,83.6099997 11.7519996,83.584 11.832,83.584 L12.744,83.596 L12.744,81.028 C12.744,80.5159974 12.7579999,80.0880017 12.786,79.744 C12.8140001,79.3999983 12.8759995,79.0160021 12.972,78.592 L12.336,78.592 C12.2559996,78.592 12.1900003,78.5680002 12.138,78.52 C12.0859997,78.4719998 12.06,78.4080004 12.06,78.328 L12.06,77.944 C12.06,77.8639996 12.0859997,77.7980003 12.138,77.746 C12.1900003,77.6939997 12.2559996,77.668 12.336,77.668 L14.904,77.668 Z M4.276,81.736 C4.1959996,81.736 4.13000026,81.7100003 4.078,81.658 C4.02599974,81.6059997 4,81.5400004 4,81.46 L4,77.944 C4,77.8639996 4.02599974,77.7980003 4.078,77.746 C4.13000026,77.6939997 4.1959996,77.668 4.276,77.668 L4.804,77.668 C4.8840004,77.668 4.94999974,77.6939997 5.002,77.746 C5.05400026,77.7980003 5.08,77.8639996 5.08,77.944 L5.08,81.46 C5.08,81.5400004 5.05400026,81.6059997 5.002,81.658 C4.94999974,81.7100003 4.8840004,81.736 4.804,81.736 L4.276,81.736 Z" id="מיפוי-דפיברילטורים-ח"></path>
                </g>
            </g>
        </g>
    </g>
</svg>