<?xml version="1.0" encoding="UTF-8" standalone="no"?>
<svg width="764px" height="215px" viewBox="0 0 764 215" version="1.1" xmlns="http://www.w3.org/2000/svg" xmlns:xlink="http://www.w3.org/1999/xlink">
    <!-- Generator: Sketch 39.1 (31720) - http://www.bohemiancoding.com/sketch -->
    <title>לוגו</title>
    <desc>Created with Sketch.</desc>
    <defs></defs>
    <g id="Page-1" stroke="none" stroke-width="1" fill="none" fill-rule="evenodd">
        <g id="A4" transform="translate(-111.000000, -107.000000)" fill="#FFFFFF">
            <g id="לוגו" transform="translate(111.865546, 107.959664)">
                <path d="M726.100329,189.035697 L725.274245,187.108168 L728.248148,187.108168 L728.633654,187.934252 C729.023519,188.806807 729.332026,189.623037 729.563394,190.414588 C732.860845,188.60318 735.551492,186.777734 739.923469,186.777734 C743.778528,186.777734 746.642286,190.082071 746.642286,193.826985 L746.642286,213.542857 L737.500289,213.542857 L736.123482,213.542857 L736.123482,211.119677 L737.500289,211.119677 L743.943745,211.17475 L743.888672,193.826985 C743.888672,191.624094 742.456793,189.200914 739.537963,189.200914 C735.682904,189.200914 732.929291,190.192215 730.23075,191.624094 L729.941945,192.080103 C730.096957,193.048813 730.135379,194.014166 730.065533,195.038575 L728.193076,212.331267 L728.027859,213.542857 L725.274245,213.542857 L725.439462,212.000834 L727.311919,194.818286 C727.477136,192.835684 727.036558,191.183516 726.100329,189.035697 L726.100329,189.035697 Z M696.595361,188.484975 L696.595361,187.108168 L699.348975,187.108168 L699.348975,188.484975 L699.348975,199.279139 L699.348975,200.655946 L696.595361,200.655946 L696.595361,199.279139 L696.595361,188.484975 Z M654.919422,199.168995 L654.919422,200.545802 L652.165808,200.545802 L652.165808,199.168995 L652.165808,187.218313 L662.739684,186.502373 C667.861405,186.171939 671.000524,189.476276 671.000524,192.725539 L671.000524,205.667523 L670.559946,213.542857 L653.542615,213.542857 L652.165808,213.542857 L652.165808,211.119677 L653.542615,211.119677 L668.246911,211.119677 L668.301983,205.722595 L668.246911,192.725539 C668.246911,190.577721 666.04402,188.705264 662.959973,188.925553 L654.919422,189.311059 L654.919422,199.168995 Z M623.597069,188.484975 L623.597069,187.108168 L626.350682,187.108168 L626.350682,188.484975 L626.350682,212.16605 L626.350682,213.542857 L623.597069,213.542857 L623.597069,212.16605 L623.597069,188.484975 Z M594.697896,188.484975 L594.697896,187.108168 L597.451509,187.108168 L597.451509,188.484975 L597.451509,199.279139 L597.451509,200.655946 L594.697896,200.655946 L594.697896,199.279139 L594.697896,188.484975 Z M520.65323,188.264686 L520.873519,187.108168 L523.682205,187.108168 L523.406844,188.705264 C521.809748,197.847261 520.983664,200.27044 519.992363,201.702319 C517.924573,205.114174 514.109903,203.964734 511.281264,202.899945 L512.006884,211.284894 L519.111207,211.395039 C525.224229,211.780545 529.13436,207.484908 530.290877,202.418259 L533.209708,188.209613 L533.429997,187.108168 L536.18361,187.108168 L535.798104,188.760336 L532.879274,202.968982 C531.502467,209.302292 526.380746,214.258797 519.001062,213.818218 L509.47356,213.487785 L507.270669,188.595119 L507.160524,187.108168 L509.914138,187.108168 L510.024282,188.37483 L511.150745,201.391733 L511.235872,201.426958 C513.438763,202.253042 516.137304,202.69362 517.679328,200.160296 C518.670629,198.838561 519.276424,196.525526 520.65323,188.264686 L520.65323,188.264686 Z M478.977291,188.484975 L478.977291,187.108168 L481.730904,187.108168 L481.730904,188.484975 L481.730904,199.279139 L481.730904,200.655946 L478.977291,200.655946 L478.977291,199.279139 L478.977291,188.484975 Z M431.408618,213.542857 L430.031812,213.542857 L430.031812,211.119677 L431.408618,211.119677 L432.950642,211.119677 C433.336148,210.568955 433.611509,209.467509 433.611509,208.03563 L433.501365,187.218313 L444.570891,186.502373 C449.912901,186.227012 453.382454,189.696565 453.382454,193.22119 L453.382454,212.16605 L453.382454,213.597929 L450.62884,213.597929 L450.62884,212.221123 L450.62884,193.22119 C450.62884,190.79801 448.095516,188.760336 444.736108,188.925553 L436.254978,189.311059 L436.365123,206.713896 C436.365123,210.128376 435.759328,211.505183 434.492666,213.542857 L431.408618,213.542857 Z M403.665963,188.484975 L403.665963,187.108168 L406.419576,187.108168 L406.419576,188.484975 L406.419576,212.16605 L406.419576,213.542857 L403.665963,213.542857 L403.665963,212.16605 L403.665963,188.484975 Z M361.65959,199.168995 L361.65959,200.545802 L358.905976,200.545802 L358.905976,199.168995 L358.905976,187.218313 L369.479852,186.502373 C374.601573,186.171939 377.740692,189.476276 377.740692,192.725539 L377.740692,205.667523 L377.300114,213.542857 L360.282783,213.542857 L358.905976,213.542857 L358.905976,211.119677 L360.282783,211.119677 L374.987079,211.119677 L375.042151,205.722595 L374.987079,192.725539 C374.987079,190.577721 372.784188,188.705264 369.700141,188.925553 L361.65959,189.311059 L361.65959,199.168995 Z M330.612598,188.484975 L330.612598,187.108168 L333.366212,187.108168 L333.366212,188.484975 L333.366212,199.279139 L333.366212,200.655946 L330.612598,200.655946 L330.612598,199.279139 L330.612598,188.484975 Z M293.893163,200.380585 L292.736645,200.380585 L292.736645,198.06755 L293.893163,198.06755 L304.632255,198.06755 L305.788773,198.06755 L305.788773,200.380585 L304.632255,200.380585 L293.893163,200.380585 Z M250.950561,212.16605 L250.950561,213.542857 L248.196948,213.542857 L248.196948,212.16605 L248.196948,187.16324 L259.596908,186.612518 C264.938918,186.337156 268.243254,189.971926 268.188182,193.386407 L268.188182,212.16605 L268.188182,213.542857 L265.434568,213.542857 L265.434568,212.16605 L265.434568,193.386407 C265.48964,191.073371 263.121533,188.870481 259.707052,189.035697 L250.950561,189.311059 L250.950561,212.16605 Z M207.126803,189.366131 L205.639852,189.366131 L205.639852,187.273385 L206.906514,187.108168 L213.84562,186.502373 C218.196329,186.502373 221.11516,189.421203 221.11516,192.780612 L221.060087,206.273318 C221.060089,207.89352 221.147629,209.469952 221.634877,211.119677 L222.602111,211.119677 L223.978918,211.119677 L223.978918,213.542857 L222.602111,213.542857 L205.915213,213.542857 L204.538407,213.542857 L204.538407,211.119677 L205.915213,211.119677 L219.448444,211.119677 C218.878202,209.535114 218.361546,207.983418 218.361546,206.32839 L218.306474,192.725539 C218.306474,190.687866 216.544161,188.925553 213.955765,188.925553 L207.126803,189.366131 Z M165.726225,189.531348 L164.349418,189.531348 L164.349418,187.108168 L165.726225,187.108168 L180.320376,187.108168 L180.320376,212.16605 L180.320376,213.542857 L177.566763,213.542857 L177.566763,212.16605 L177.566763,189.531348 L165.726225,189.531348 Z M118.708276,213.542857 L117.331469,213.542857 L117.331469,211.119677 L118.708276,211.119677 L120.250299,211.119677 C120.635805,210.568955 120.911166,209.467509 120.911166,208.03563 L120.801022,187.218313 L131.870548,186.502373 C137.212558,186.227012 140.682111,189.696565 140.682111,193.22119 L140.682111,212.16605 L140.682111,213.597929 L137.928497,213.597929 L137.928497,212.221123 L137.928497,193.22119 C137.928497,190.79801 135.395173,188.760336 132.035765,188.925553 L123.554635,189.311059 L123.66478,206.713896 C123.66478,210.128376 123.058985,211.505183 121.792323,213.542857 L118.708276,213.542857 Z M91.2409815,188.484975 L91.2409815,187.108168 L93.994595,187.108168 L93.994595,188.484975 L93.994595,199.279139 L93.994595,200.655946 L91.2409815,200.655946 L91.2409815,199.279139 L91.2409815,188.484975 Z" id="מיפוי-שיתופי-חברתי"></path>
                <path d="M57.4565553,177.263866 C44.5730617,177.263866 44.5730617,157.786724 57.4565553,157.786724 L57.6330416,157.786724 C70.5165352,157.786724 70.5165352,177.263866 57.6330416,177.263866 L57.4565553,177.263866 Z M1.52794329,41.0792971 C0.514658059,45.4844202 8.76035648e-06,50.0862017 5.68434189e-14,54.801418 C-3.4185722e-05,73.201705 12.5584794,85.5696529 12.5584794,85.5696529 L44.9717803,85.5696529 C33.2939441,76.0190726 17.5846108,61.0833012 17.5846108,49.8475456 C17.5846108,48.9115482 17.6473462,47.9580415 17.7709461,46.9972991 L1.52794329,41.0792971 Z M2.86889761,36.2369967 C9.6642898,15.3698668 28.3540975,0 57.0397384,0 C93.7407685,0 117.028571,23.9405366 117.028571,56.0309568 C117.028571,64.2564048 114.509423,71.9214422 110.747203,78.922812 L87.9178751,72.050053 C93.0458382,64.6449381 97.1729207,56.6213082 97.1729207,49.9771422 C97.1729207,49.8383864 97.1712601,49.7025756 97.1679555,49.5696675 C97.0266114,38.9510364 88.9016807,26.2306417 75.4812664,26.2306417 C61.9422288,26.2306417 55.8467356,38.2866169 55.8467356,38.2866169 C55.8467356,38.2866169 52.8177834,26.2306417 39.2731749,26.2306417 C30.5421333,26.2306417 24.0504286,31.6177559 20.5421135,38.3061009 L14.0867162,37.4994181 C14.0867162,37.4994181 8.76597105,36.8465006 2.86889761,36.2369967 Z M107.337503,84.6229207 C101.499337,93.4991688 94.0676491,101.131708 88.1140125,107.271994 C78.0387327,117.663139 71.1814192,123.246297 71.1814197,132.367189 L71.1814197,146.40341 L42.5613504,146.40341 L42.5613504,132.367189 C41.297248,112.688735 60.7435121,104.721339 72.8649532,90.1954763 C75.1011014,87.8585173 77.961016,84.7441002 80.9282537,81.1822877 L107.337503,84.6229207 Z M6.04380462,39.7379046 L55.9331568,56.66917 L43.9675375,71.4471207 L106.484298,81.0840362 L57.1297187,65.9950612 L75.2277179,49.7823581 L6.04380462,39.7379046 Z M47.5768588,48.2978693 L66.0688945,51.1527421 L60.9480231,56.4342567 L47.5768588,48.2978693 Z" id="איפה-דפי?"></path>
                <path d="M658.87709,146.022963 L632.672318,146.022963 L635.503108,132.359906 L644.04395,89.531477 C648.689372,66.6721314 666.819134,64.8328737 672.725481,60.8916072 L672.957454,60.4902639 L662.909809,39.8715193 L653.134387,20.1651869 L684.796236,20.1651869 L687.924371,26.4712133 L714.589929,81.1915231 C723.184798,75.7933183 722.469558,65.03037 725.718353,54.0600786 L732.415797,31.4634841 L735.939902,19.9024358 L762.406723,19.9024358 L758.088255,34.6164973 L751.390811,57.2130918 C744.188772,81.0764332 734.058855,87.4441541 720.251484,92.8095872 L736.579683,126.316631 L746.310745,146.285714 L714.648896,146.285714 L711.565121,139.716937 L678.295578,71.4446144 C673.561838,76.3841073 671.66627,82.2761612 670.071284,90.5824814 L661.530443,133.41091 L658.87709,146.022963 Z M620.013574,37.7318688 L643.8488,37.7318688 L641.939562,49.0407011 L635.333598,88.1692606 L633.424359,99.4780929 L609.589134,99.4780929 L611.498372,88.1692606 L618.104336,49.0407011 L620.013574,37.7318688 Z M537.821864,99.0972041 L514.220792,99.0972041 L516.126702,87.8080869 L524.436469,38.5875356 L570.788,35.8781474 C594.83128,34.0718887 608.857015,50.3282175 606.455569,64.5525053 L598.565102,111.289451 L588.587353,146.285714 L517.558058,146.285714 L506.254089,146.285714 L509.570372,126.64265 L520.874341,126.64265 L570.385724,126.64265 L573.165723,111.515233 L580.906346,64.3267229 C581.744947,59.3595113 576.13897,55.0696468 568.828193,55.5212115 L545.064321,56.1985585 L539.727774,87.8080869 L537.821864,99.0972041 Z M420.695604,87.5272108 L444.530829,87.5272108 L442.63044,98.7836291 L436.511186,135.029296 L434.610797,146.285714 L410.775571,146.285714 L412.675961,135.029296 L418.795214,98.7836291 L420.695604,87.5272108 Z M429.673529,55.5193783 C423.596594,54.3137355 419.758247,52.2365678 419.758247,52.2365678 L427.18214,32.9491719 C427.18214,32.9491719 429.178166,34.8953844 438.773521,36.435816 C448.368877,37.9762477 456.973581,37.731869 456.973581,37.731869 L514.466097,37.7318688 L509.655302,66.2272533 L498.048304,134.978022 L496.139258,146.285714 L470.66344,146.285714 L472.572486,134.978022 L484.179484,66.2272533 L485.630359,57.6334072 L452.069579,57.6334066 C448.235629,57.6334066 435.750463,56.7250211 429.673529,55.5193783 Z M267.033524,15.4890756 C267.033524,15.4890756 268.306463,16.3092241 274.639219,18.1653923 C280.971976,20.0215606 300.24578,20.7104983 300.24578,20.7104983 L361.884989,20.7104983 L376.911407,20.7104983 L373.512447,43.6847582 L358.48603,43.6847582 L357.941323,43.6847582 L355.734183,46.0343984 C351.393976,50.99475 348.496099,52.3001057 346.603496,65.0925913 L336.561117,132.971086 L334.891794,146.285714 L305.139488,146.285714 L306.770186,133.232158 L316.550662,65.0925913 C318.712634,50.4793799 327.700272,46.9618113 335.400652,43.6847582 L296.846821,43.6847582 C296.846821,43.6847582 286.575352,43.3091881 274.608813,41.8717643 C262.642273,40.4343405 258.597307,37.2450033 258.597307,37.2450033 L267.033524,15.4890756 Z M190.041337,99.0972041 L166.440265,99.0972041 L168.346174,87.8080869 L176.655941,38.5875356 L223.007473,35.8781474 C247.050753,34.0718887 260.083353,50.3282175 257.681907,64.5525053 L249.791441,111.289451 L239.813691,146.285714 L169.777531,146.285714 L158.473562,146.285714 L161.789845,126.64265 L173.093814,126.64265 L222.605197,126.64265 L225.385195,111.515233 L233.125819,64.3267229 C233.964419,59.3595113 228.358442,55.0696468 221.047666,55.5212115 L197.283794,56.1985585 L191.947246,87.8080869 L190.041337,99.0972041 Z M142.942088,37.7318688 L166.777313,37.7318688 L164.868075,49.0407011 L158.262111,88.1692606 L156.352873,99.4780929 L132.517647,99.4780929 L134.426885,88.1692606 L141.032849,49.0407011 L142.942088,37.7318688 Z" id="Combined-Shape"></path>
                <path d="M309.781513,163.495798 C311.682486,163.495798 313.223529,161.954755 313.223529,160.053782 C313.223529,158.152808 311.682486,156.611765 309.781513,156.611765 C307.880539,156.611765 306.339496,158.152808 306.339496,160.053782 C306.339496,161.954755 307.880539,163.495798 309.781513,163.495798 Z M326.991597,163.495798 C328.89257,163.495798 330.433613,161.954755 330.433613,160.053782 C330.433613,158.152808 328.89257,156.611765 326.991597,156.611765 C325.090623,156.611765 323.54958,158.152808 323.54958,160.053782 C323.54958,161.954755 325.090623,163.495798 326.991597,163.495798 Z M316.665546,175.542857 C318.56652,175.542857 320.107563,174.001814 320.107563,172.10084 C320.107563,170.199867 318.56652,168.658824 316.665546,168.658824 C314.764573,168.658824 313.223529,170.199867 313.223529,172.10084 C313.223529,174.001814 314.764573,175.542857 316.665546,175.542857 Z" id="Combined-Shape"></path>
            </g>
        </g>
    </g>
</svg>